<svg width="182" height="74" viewBox="0 0 182 74" fill="none" xmlns="http://www.w3.org/2000/svg">
<path fill-rule="evenodd" clip-rule="evenodd" d="M12.01 61.12V49.02C12.22 49.04 12.44 49.07 12.65 49.09C16.48 49.09 20.32 49.08 24.15 49.07C24.15 45.04 24.15 41 24.14 36.97V36.94C32.23 36.92 40.3 36.9 48.37 36.88C52.45 36.68 56.52 36.48 60.6 36.27C60.63 32.69 60.66 29.11 60.68 25.53C61.04 25.38 61.39 25.23 61.75 25.08H72.62V12.85H84.72V1H109.08V12.97H121.09V24.66C121.28 24.78 121.47 24.89 121.65 25.01C133.29 25.04 144.93 25.07 156.57 25.1C156.8 25.24 157.03 25.37 157.25 25.51C157.29 29.06 157.33 32.61 157.37 36.16C157.33 36.65 157.29 37.13 157.25 37.62C157.69 37.52 158.12 37.42 158.56 37.32C162.15 37.34 165.73 37.36 169.32 37.37H181.53V61.71H169.58V73.44H0V61.13H12.01V61.12Z" fill="white"/>
<path fill-rule="evenodd" clip-rule="evenodd" d="M12.01 61.12V49.02C12.22 49.04 12.44 49.07 12.65 49.09C16.48 49.09 20.32 49.08 24.15 49.07C24.15 45.04 24.15 41 24.14 36.97V36.94C32.23 36.92 40.3 36.9 48.37 36.88C52.45 36.68 56.52 36.48 60.6 36.27C64.33 36.57 72.39 36.57 72.39 36.57V25.47H108.77V37.6H157.26C157.7 37.5 158.13 37.4 158.57 37.3C162.16 37.32 165.74 37.34 169.33 37.35H181.54V61.69H169.59V73.42H0V61.11H12.01V61.12Z" fill="#BFE7F7"/>
<g style="mix-blend-mode:multiply" opacity="0.3">
<path fill-rule="evenodd" clip-rule="evenodd" d="M0 61.12V73.43H169.6V61.7H181.55V37.36H169.34V49.17H157.3V60.81H96.57V49.75H48.26V60.86H36.11V49.08H24.17C20.34 49.08 16.5 49.09 12.67 49.1C12.44 49.07 12.21 49.05 11.98 49.02H12.02V61.12H0Z" fill="#58B6E7"/>
</g>
</svg>
